# xmcd
#
# Track frame offsets:
#	183
#	13225
#	26575
#	37223
#	48603
#	61223
#	70795
#	82138
#	93690
#	105145
#
# Disc length: 1798 seconds
#
# Revision: 0
# Processed by: cddbd v1.5.2PL0 Copyright (c) Steve Scherf et al.
# Submitted via: dBpowerAMP V4.0
#
DISCID=8507040a
DTITLE=Charley Pride - Classic Country
DYEAR=1900
DGENRE=Comedy
TTITLE0=KaewLiga
TTITLE1=I'm Afraid Of Loosing You Again
TTITLE2=Oklahoma Morning
TTITLE3=It's Gonna Take A Little Bit Longer
TTITLE4=Crystal Chandeliea
TTITLE5=Kiss An Angel Good Morning
TTITLE6=The Happiness Of Loving you
TTITLE7=My My Ryes Can Only See As Far As You
TTITLE8=Shutters And Boards
TTITLE9=(a) Does My Ring Hurt Your Finger (b) She's Too Good To Be True (c)I'd Rather Love You (d)All I Have To Offer You Is Me (e)Wonder Could I Live There Anymore (f) Is Anybody Goin' To San Antone (g)I'm Just Me
EXTD=Ronco CDSR070
EXTT0=
EXTT1=
EXTT2=
EXTT3=
EXTT4=
EXTT5=
EXTT6=
EXTT7=
EXTT8=
EXTT9=
PLAYORDER=
